<svg xmlns="http://www.w3.org/2000/svg" viewBox="0 0 128 128">

  <!-- Vertical track / runner -->
  <rect x="57" y="8" width="14" height="112" rx="7" fill="#2e2e46"/>
  <rect x="57" y="8" width="14" height="112" rx="7" fill="none" stroke="rgba(255,255,255,.1)" stroke-width="1"/>
  <rect x="60.5" y="14" width="7" height="100" rx="3.5" fill="#18182a"/>

  <!-- OFF dot bottom -->
  <circle cx="64" cy="111" r="4" fill="rgba(255,255,255,.15)"/>

  <!-- SHIELD centred at 64,64 -->
  <path d="M64,18 C76,18 92,24 92,38 L92,60 C92,78 80,90 64,96 C48,90 36,78 36,60 L36,38 C36,24 52,18 64,18 Z" fill="#3abf6e"/>
  <path d="M64,26 C73,26 84,31 84,42 L84,60 C84,74 74,83 64,88 C54,83 44,74 44,60 L44,42 C44,31 55,26 64,26 Z" fill="rgba(0,0,0,.14)"/>

  <!-- Eyes -->
  <circle cx="52" cy="56" r="10" fill="white"/>
  <circle cx="52" cy="56" r="7"  fill="#0a2a1a"/>
  <circle cx="49" cy="53" r="2.8" fill="white" opacity=".85"/>
  <circle cx="76" cy="56" r="10" fill="white"/>
  <circle cx="76" cy="56" r="7"  fill="#0a2a1a"/>
  <circle cx="73" cy="53" r="2.8" fill="white" opacity=".85"/>

  <!-- Smile -->
  <path d="M54,70 Q64,80 74,70" fill="#111"/>
  <path d="M57,71 Q64,78 71,71" fill="white"/>

</svg>